<svg width="338" height="109" viewBox="0 0 338 109" fill="none" xmlns="http://www.w3.org/2000/svg">
<path d="M0.149957 2.86323H65.2735V21.4279H19.5986V45.002H63.5054V63.5666H19.5986V87.4354H67.0415V106H0.149957V2.86323ZM138.251 32.9202H158.731L141.05 67.25V69.9021L159.762 106H138.398L124.696 77.4164H122.044L108.341 106H86.9771L105.689 69.9021V67.25L87.8611 32.9202H108.488L122.044 59.7358H124.696L138.251 32.9202ZM213.88 90.3821C217.613 90.3821 220.658 89.8419 223.015 88.7614C225.471 87.5827 227.337 86.0602 228.614 84.1939C229.989 82.2294 230.922 80.0194 231.413 77.5637C231.905 75.0099 232.15 72.4069 232.15 69.7548V67.1027H251.599V69.7548C251.599 82.033 248.357 91.5117 241.874 98.1911C235.49 104.772 226.158 108.063 213.88 108.063C202.093 108.063 192.762 104.478 185.886 97.307C179.01 90.1366 175.572 79.6756 175.572 65.924V42.9392C175.572 36.3581 176.456 30.4646 178.224 25.2586C179.992 19.9545 182.546 15.5343 185.886 11.9982C189.226 8.36387 193.253 5.61355 197.968 3.74727C202.682 1.78276 207.987 0.8005 213.88 0.8005C219.97 0.8005 225.373 1.68453 230.087 3.45259C234.802 5.22065 238.731 7.77451 241.874 11.1142C245.116 14.4538 247.522 18.4811 249.094 23.1959C250.764 27.9107 251.599 33.2149 251.599 39.1084V41.7605H232.15V39.1084C232.15 36.6528 231.855 34.1972 231.266 31.7415C230.677 29.2859 229.694 27.0758 228.319 25.1113C226.944 23.1468 225.078 21.5752 222.72 20.3965C220.363 19.1196 217.416 18.4811 213.88 18.4811C210.639 18.4811 207.839 19.1196 205.482 20.3965C203.124 21.5752 201.16 23.245 199.588 25.406C198.017 27.4687 196.838 29.9244 196.052 32.7729C195.365 35.5232 195.021 38.4209 195.021 41.4659V67.3974C195.021 70.737 195.365 73.8312 196.052 76.6797C196.74 79.43 197.82 81.8365 199.294 83.8993C200.767 85.962 202.682 87.5827 205.04 88.7614C207.496 89.8419 210.442 90.3821 213.88 90.3821ZM269.766 88.3194H295.403V20.5438H270.65V2.86323H313.968V88.3194H337.837V106H269.766V88.3194Z" fill="url(#paint0_linear_16_146)"/>
<defs>
<linearGradient id="paint0_linear_16_146" x1="339.461" y1="-58.9995" x2="112.101" y2="-36.9421" gradientUnits="userSpaceOnUse">
<stop offset="0.137283" stop-color="#8C9AFF"/>
<stop offset="0.938343" stop-color="#C290FF"/>
</linearGradient>
</defs>
</svg>
