<svg width="724" height="89" viewBox="0 0 724 89" fill="none" xmlns="https://www.w3.org/2000/svg">
<path d="M0.922 2.29999H54.404V17.546H16.894V36.906H52.952V52.152H16.894V71.754H55.856V87H0.922V2.29999ZM114.336 26.984H131.155L116.635 55.177V57.355L132.002 87H114.457L103.204 63.526H101.026L89.7729 87H72.2279L87.5949 57.355V55.177L72.9539 26.984H89.8939L101.026 49.006H103.204L114.336 26.984ZM187.457 78.288C185.843 82.0793 183.585 84.7817 180.681 86.395C177.777 87.9277 174.389 88.694 170.517 88.694C166.887 88.694 163.458 88.0083 160.232 86.637C157.086 85.2657 154.303 83.249 151.883 80.587C149.463 77.925 147.527 74.6983 146.075 70.907C144.703 67.1157 144.018 62.8 144.018 57.96V56.024C144.018 51.2647 144.703 46.9893 146.075 43.198C147.446 39.4067 149.301 36.18 151.641 33.518C153.98 30.856 156.682 28.8393 159.748 27.468C162.894 26.016 166.241 25.29 169.791 25.29C174.066 25.29 177.494 26.016 180.076 27.468C182.738 28.92 184.835 31.1787 186.368 34.244H188.546V26.984H203.792V68.85C203.792 71.27 204.881 72.48 207.059 72.48H209.358V87H198.952C196.209 87 193.95 86.1933 192.176 84.58C190.482 82.9667 189.635 80.8693 189.635 78.288H187.457ZM173.905 74.174C178.341 74.174 181.891 72.722 184.553 69.818C187.215 66.8333 188.546 62.8 188.546 57.718V56.266C188.546 51.184 187.215 47.191 184.553 44.287C181.891 41.3023 178.341 39.81 173.905 39.81C169.468 39.81 165.919 41.3023 163.257 44.287C160.595 47.191 159.264 51.184 159.264 56.266V57.718C159.264 62.8 160.595 66.8333 163.257 69.818C165.919 72.722 169.468 74.174 173.905 74.174ZM282.963 87H267.717V44.892C267.717 43.198 267.273 41.9477 266.386 41.141C265.579 40.2537 264.49 39.81 263.119 39.81C261.505 39.81 260.215 40.294 259.247 41.262C258.359 42.23 257.916 43.682 257.916 45.618V87H242.67V44.892C242.67 43.198 242.186 41.9477 241.218 41.141C240.33 40.2537 239.241 39.81 237.951 39.81C236.499 39.81 235.289 40.294 234.321 41.262C233.353 42.23 232.869 43.682 232.869 45.618V87H217.623V26.984H232.869V32.792H235.047C235.531 30.614 236.62 28.8393 238.314 27.468C240.088 26.016 242.387 25.29 245.211 25.29C247.873 25.29 250.131 26.016 251.987 27.468C253.842 28.8393 255.092 30.614 255.738 32.792H257.916C258.561 30.614 259.892 28.8393 261.909 27.468C264.006 26.016 266.587 25.29 269.653 25.29C273.686 25.29 276.913 26.6613 279.333 29.404C281.753 32.066 282.963 35.7767 282.963 40.536V87ZM324.623 74.174C327.689 74.174 330.189 73.7303 332.125 72.843C334.142 71.875 335.675 70.6247 336.723 69.092C337.853 67.4787 338.619 65.6637 339.022 63.647C339.426 61.5497 339.627 59.412 339.627 57.234V55.056H355.599V57.234C355.599 67.3173 352.937 75.1017 347.613 80.587C342.37 85.9917 334.707 88.694 324.623 88.694C314.943 88.694 307.28 85.7497 301.633 79.861C295.987 73.9723 293.163 65.3813 293.163 54.088V35.212C293.163 29.8073 293.889 24.9673 295.341 20.692C296.793 16.336 298.891 12.706 301.633 9.802C304.376 6.81733 307.683 4.55867 311.555 3.026C315.427 1.41266 319.783 0.605994 324.623 0.605994C329.625 0.605994 334.061 1.33199 337.933 2.784C341.805 4.236 345.032 6.33333 347.613 9.07599C350.275 11.8187 352.252 15.126 353.542 18.998C354.914 22.87 355.599 27.226 355.599 32.066V34.244H339.627V32.066C339.627 30.0493 339.385 28.0327 338.901 26.016C338.417 23.9993 337.611 22.1843 336.481 20.571C335.352 18.9577 333.819 17.667 331.883 16.699C329.947 15.6503 327.527 15.126 324.623 15.126C321.961 15.126 319.662 15.6503 317.726 16.699C315.79 17.667 314.177 19.0383 312.886 20.813C311.596 22.507 310.628 24.5237 309.982 26.863C309.418 29.1217 309.135 31.5013 309.135 34.002V55.298C309.135 58.0407 309.418 60.5817 309.982 62.921C310.547 65.1797 311.434 67.156 312.644 68.85C313.854 70.544 315.427 71.875 317.363 72.843C319.38 73.7303 321.8 74.174 324.623 74.174ZM370.519 72.48H391.573V16.82H371.245V2.29999H406.819V72.48H426.421V87H370.519V72.48ZM485.627 26.984H500.873V87H485.627V78.288H483.449C480.787 85.2253 475.06 88.694 466.267 88.694C463.283 88.694 460.5 88.21 457.918 87.242C455.337 86.274 453.078 84.7817 451.142 82.765C449.206 80.7483 447.674 78.2477 446.544 75.263C445.496 72.1977 444.971 68.608 444.971 64.494V26.984H460.217V61.348C460.217 65.6233 461.226 68.971 463.242 71.391C465.259 73.7303 468.284 74.9 472.317 74.9C476.915 74.9 480.263 73.448 482.36 70.544C484.538 67.5593 485.627 63.526 485.627 58.444V26.984ZM517.366 26.984H535.153V2.29999H550.399V26.984H572.058V41.504H550.399V68.85C550.399 71.27 551.488 72.48 553.666 72.48H569.88V87H544.47C541.727 87 539.469 86.1127 537.694 84.338C536 82.5633 535.153 80.3047 535.153 77.562V41.504H517.366V26.984ZM651.713 64.978C650.342 72.0767 647.075 77.804 641.912 82.16C636.83 86.516 630.014 88.694 621.463 88.694C617.026 88.694 612.872 88.0083 609 86.637C605.209 85.2657 601.901 83.2893 599.078 80.708C596.255 78.1267 594.036 74.9403 592.423 71.149C590.81 67.3577 590.003 63.042 590.003 58.202V56.75C590.003 51.91 590.81 47.554 592.423 43.682C594.036 39.81 596.255 36.5027 599.078 33.76C601.982 31.0173 605.33 28.92 609.121 27.468C612.993 26.016 617.107 25.29 621.463 25.29C629.852 25.29 636.628 27.468 641.791 31.824C647.034 36.18 650.342 41.9073 651.713 49.006L636.709 52.878C636.225 49.3287 634.692 46.2633 632.111 43.682C629.53 41.1007 625.9 39.81 621.221 39.81C619.043 39.81 616.986 40.2133 615.05 41.02C613.114 41.8267 611.42 42.9963 609.968 44.529C608.516 45.981 607.346 47.796 606.459 49.974C605.652 52.0713 605.249 54.451 605.249 57.113V57.839C605.249 60.501 605.652 62.8807 606.459 64.978C607.346 66.9947 608.516 68.6887 609.968 70.06C611.42 71.4313 613.114 72.48 615.05 73.206C616.986 73.8513 619.043 74.174 621.221 74.174C625.9 74.174 629.449 73.0043 631.869 70.665C634.37 68.3257 635.983 65.1797 636.709 61.227L651.713 64.978ZM682.726 87H667.48V2.29999H682.726V36.664H684.904C686.436 33.034 688.695 30.251 691.68 28.315C694.664 26.2983 698.335 25.29 702.691 25.29C705.675 25.29 708.418 25.774 710.919 26.742C713.419 27.71 715.597 29.162 717.453 31.098C719.308 33.034 720.76 35.5347 721.809 38.6C722.857 41.5847 723.382 45.134 723.382 49.248V87H708.136V52.878C708.136 48.6027 707.087 45.255 704.99 42.835C702.973 40.3343 700.029 39.084 696.157 39.084C691.639 39.084 688.251 40.6167 685.993 43.682C683.815 46.6667 682.726 50.7 682.726 55.782V87Z" fill="white"/>
</svg>
